<?xml version="1.0" encoding="UTF-8"?>
<svg id="Capa_1" xmlns="http://www.w3.org/2000/svg" viewBox="0 0 50 50">
  <defs>
    <style>
      .cls-1 {
        fill: #009379;
        isolation: isolate;
        opacity: .2;
      }

      .cls-2 {
        fill: #e5f4f2;
      }

      .cls-3 {
        fill: none;
        stroke: #009379;
        stroke-linecap: round;
        stroke-linejoin: round;
        stroke-width: 1.45px;
      }
    </style>
  </defs>
  <path class="cls-2" d="M0,24.39C0,12.89,0,7.14,3.57,3.57,7.14,0,12.89,0,24.39,0h1.22c11.5,0,17.25,0,20.82,3.57,3.57,3.57,3.57,9.32,3.57,20.82v1.22c0,11.5,0,17.25-3.57,20.82-3.57,3.57-9.32,3.57-20.82,3.57h-1.22c-11.5,0-17.25,0-20.82-3.57-3.57-3.57-3.57-9.32-3.57-20.82v-1.22Z"/>
  <path class="cls-1" d="M14.89,19.18c-.07.12-.11.27-.11.41v9.86c0,.14.04.28.11.41.07.12.18.22.3.3l8.8,4.95c.12.07.25.1.39.1l.09-10.68-9.58-5.34Z"/>
  <path class="cls-3" d="M33.99,29.45v-9.86c0-.14-.04-.28-.11-.41-.07-.12-.18-.22-.3-.3l-8.8-4.95c-.12-.07-.25-.1-.39-.1s-.27.04-.39.1l-8.8,4.95c-.12.07-.23.17-.3.3-.07.12-.11.26-.11.41v9.86c0,.14.04.28.11.41.07.12.18.22.3.3l8.8,4.95c.12.07.25.1.39.1s.27-.04.39-.1l8.8-4.95c.12-.07.23-.17.3-.3.07-.12.11-.26.11-.41h0Z"/>
  <path class="cls-3" d="M29.29,26.97v-5.2l-9.7-5.35"/>
  <path class="cls-3" d="M33.88,19.18l-9.4,5.34-9.58-5.34"/>
  <path class="cls-3" d="M24.48,24.52l-.09,10.68"/>
</svg>