<?xml version="1.0" encoding="UTF-8"?>
<svg xmlns="http://www.w3.org/2000/svg" viewBox="0 0 50 50">
  <defs>
    <style>
      .cls-1 {
        stroke-width: .09px;
      }

      .cls-1, .cls-2 {
        fill: #009379;
        isolation: isolate;
        opacity: .2;
      }

      .cls-1, .cls-3 {
        stroke: #009379;
      }

      .cls-4 {
        fill: #e5f4f2;
      }

      .cls-3 {
        fill: none;
        stroke-linecap: round;
        stroke-linejoin: round;
        stroke-width: 1.45px;
      }
    </style>
  </defs>
  <g id="Capa_1">
    <path class="cls-4" d="M0,24.39C0,12.89,0,7.14,3.57,3.57,7.14,0,12.89,0,24.39,0h1.22c11.5,0,17.25,0,20.82,3.57,3.57,3.57,3.57,9.32,3.57,20.82v1.22c0,11.5,0,17.25-3.57,20.82-3.57,3.57-9.32,3.57-20.82,3.57h-1.22c-11.5,0-17.25,0-20.82-3.57-3.57-3.57-3.57-9.32-3.57-20.82v-1.22Z"/>
  </g>
  <g id="Capa_2">
    <path class="cls-2" d="M32.74,15.95h-3.2c-.44,0-.8.36-.8.8v3.2c0,.44.36.8.8.8h3.2c.44,0,.8-.36.8-.8v-3.2c0-.44-.36-.8-.8-.8Z"/>
    <path class="cls-1" d="M16.74,16h3.2c.42,0,.76.34.76.76v3.2c0,.42-.34.76-.76.76h-3.2c-.42,0-.76-.34-.76-.76v-3.2c0-.42.34-.76.76-.76Z"/>
    <path class="cls-1" d="M29.54,28.8h3.2c.42,0,.75.34.75.76v3.2c0,.42-.34.75-.75.75h-3.2c-.42,0-.76-.34-.76-.75v-3.2c0-.42.34-.76.76-.76Z"/>
    <path class="cls-1" d="M16.74,28.8h3.2c.42,0,.76.34.76.76v3.2c0,.42-.34.75-.76.75h-3.2c-.42,0-.76-.34-.76-.75v-3.2c0-.42.34-.76.76-.76Z"/>
    <path class="cls-3" d="M32.74,15.95h-3.2c-.44,0-.8.36-.8.8v3.2c0,.44.36.8.8.8h3.2c.44,0,.8-.36.8-.8v-3.2c0-.44-.36-.8-.8-.8Z"/>
    <path class="cls-3" d="M19.94,15.95h-3.2c-.44,0-.8.36-.8.8v3.2c0,.44.36.8.8.8h3.2c.44,0,.8-.36.8-.8v-3.2c0-.44-.36-.8-.8-.8Z"/>
    <path class="cls-3" d="M32.74,28.76h-3.2c-.44,0-.8.36-.8.8v3.2c0,.44.36.8.8.8h3.2c.44,0,.8-.36.8-.8v-3.2c0-.44-.36-.8-.8-.8Z"/>
    <path class="cls-3" d="M19.94,28.76h-3.2c-.44,0-.8.36-.8.8v3.2c0,.44.36.8.8.8h3.2c.44,0,.8-.36.8-.8v-3.2c0-.44-.36-.8-.8-.8Z"/>
    <path class="cls-3" d="M18.34,28.76v-8"/>
    <path class="cls-3" d="M28.74,31.16h-8"/>
    <path class="cls-3" d="M31.14,20.75v8"/>
    <path class="cls-3" d="M20.74,18.35h8"/>
  </g>
</svg>